<svg xmlns="http://www.w3.org/2000/svg" xmlns:xlink="http://www.w3.org/1999/xlink" width="333" zoomAndPan="magnify" viewBox="0 0 249.75 55.5" height="74" preserveAspectRatio="xMidYMid meet" version="1.0"><defs><clipPath id="f27dbafd13"><path d="M 243 13 L 248.511719 13 L 248.511719 23 L 243 23 Z M 243 13 " clip-rule="nonzero"/></clipPath><clipPath id="46e874f90c"><path d="M 1 0 L 118 0 L 118 55.003906 L 1 55.003906 Z M 1 0 " clip-rule="nonzero"/></clipPath><clipPath id="717671f20a"><path d="M 20.960938 51.488281 C 25.1875 53.832031 29.824219 55.011719 34.867188 55.011719 C 39.90625 55.011719 44.519531 53.839844 48.695312 51.488281 C 51.429688 49.949219 53.804688 48.019531 55.796875 45.691406 C 57.816406 48.035156 60.230469 49.992188 63.058594 51.550781 C 67.378906 53.855469 72.28125 55.011719 77.761719 55.011719 C 82.394531 55.011719 86.5625 54.136719 90.25 52.394531 C 93.933594 50.652344 96.964844 48.367188 99.339844 45.550781 C 101.761719 42.734375 103.476562 39.675781 104.476562 36.394531 L 104.476562 55.011719 C 111.566406 55.011719 117.3125 49.265625 117.3125 42.175781 L 117.3125 0 C 110.222656 0 104.476562 5.746094 104.476562 12.835938 L 104.476562 24.15625 L 84.769531 24.15625 C 79.414062 24.15625 75.078125 28.496094 75.078125 33.847656 L 92.226562 33.847656 C 91.175781 36.925781 89.484375 39.285156 87.171875 40.929688 C 84.902344 42.570312 82.113281 43.390625 78.792969 43.390625 C 73.941406 43.390625 70.125 42.007812 67.328125 39.238281 C 64.59375 36.421875 63.21875 32.523438 63.21875 27.546875 C 63.21875 22.882812 64.539062 19.160156 67.171875 16.394531 C 69.804688 13.578125 73.3125 12.160156 77.6875 12.160156 C 80.214844 12.160156 82.402344 12.648438 84.25 13.621094 C 86.148438 14.546875 87.59375 15.90625 88.59375 17.699219 L 103.527344 17.699219 C 102.054688 12.160156 99.019531 7.824219 94.4375 4.699219 C 89.90625 1.570312 84.324219 0.0078125 77.679688 0.0078125 C 72.199219 0.0078125 67.328125 1.1875 63.058594 3.542969 C 60.253906 5.0625 57.84375 6.992188 55.835938 9.328125 C 53.847656 7 51.476562 5.0625 48.703125 3.523438 C 44.519531 1.171875 39.90625 0 34.867188 0 C 29.824219 0 25.1875 1.171875 20.960938 3.523438 C 16.789062 5.867188 13.449219 9.136719 10.953125 13.316406 C 8.839844 16.9375 7.636719 20.953125 7.347656 25.382812 C 13.183594 25.046875 30.800781 23.445312 43.4375 16.164062 C 44.328125 15.628906 45.214844 15.097656 46.054688 14.503906 C 46.039062 14.511719 46.003906 14.554688 45.929688 14.636719 C 45.652344 14.941406 44.949219 15.726562 43.71875 16.855469 C 39.277344 20.859375 28.082031 28.851562 7.5625 31.78125 L 1.148438 32.757812 C 3.714844 34.589844 4.871094 34.992188 8.207031 35.027344 C 13 34.796875 31.816406 33.433594 45.121094 25.765625 C 46.011719 25.234375 46.898438 24.699219 47.738281 24.105469 C 47.722656 24.113281 47.6875 24.15625 47.613281 24.238281 C 47.335938 24.542969 46.632812 25.328125 45.402344 26.457031 C 41.058594 30.363281 30.277344 38.082031 10.648438 41.175781 L 5.613281 41.6875 L 1.164062 41.6875 C 4.144531 43.917969 7.355469 44.875 12.820312 44.445312 C 20.042969 43.875 35.453125 41.925781 46.824219 35.371094 C 47.714844 34.835938 48.605469 34.300781 49.441406 33.707031 C 49.429688 33.714844 49.390625 33.761719 49.316406 33.84375 C 49.042969 34.144531 48.339844 34.933594 47.109375 36.058594 C 43.214844 39.566406 34.144531 46.128906 18.160156 49.679688 C 19.050781 50.332031 19.976562 50.933594 20.953125 51.480469 Z M 20.960938 51.488281 " clip-rule="nonzero"/></clipPath><linearGradient x1="78.309998" gradientTransform="matrix(0.7415, 0, 0, 0.7415, 1.164278, 0.000000991071)" y1="74.179998" x2="78.309998" gradientUnits="userSpaceOnUse" y2="0" id="74c107bbe2"><stop stop-opacity="1" stop-color="rgb(86.669922%, 18.429565%, 0%)" offset="0"/><stop stop-opacity="1" stop-color="rgb(86.714172%, 18.615723%, 0%)" offset="0.0078125"/><stop stop-opacity="1" stop-color="rgb(86.805725%, 18.991089%, 0%)" offset="0.015625"/><stop stop-opacity="1" stop-color="rgb(86.897278%, 19.366455%, 0%)" offset="0.0234375"/><stop stop-opacity="1" stop-color="rgb(86.988831%, 19.740295%, 0%)" offset="0.03125"/><stop stop-opacity="1" stop-color="rgb(87.080383%, 20.115662%, 0%)" offset="0.0390625"/><stop stop-opacity="1" stop-color="rgb(87.17041%, 20.491028%, 0%)" offset="0.046875"/><stop stop-opacity="1" stop-color="rgb(87.261963%, 20.864868%, 0%)" offset="0.0546875"/><stop stop-opacity="1" stop-color="rgb(87.353516%, 21.240234%, 0%)" offset="0.0625"/><stop stop-opacity="1" stop-color="rgb(87.445068%, 21.615601%, 0%)" offset="0.0703125"/><stop stop-opacity="1" stop-color="rgb(87.536621%, 21.989441%, 0%)" offset="0.078125"/><stop stop-opacity="1" stop-color="rgb(87.626648%, 22.364807%, 0%)" offset="0.0859375"/><stop stop-opacity="1" stop-color="rgb(87.718201%, 22.740173%, 0%)" offset="0.09375"/><stop stop-opacity="1" stop-color="rgb(87.809753%, 23.114014%, 0%)" offset="0.101562"/><stop stop-opacity="1" stop-color="rgb(87.901306%, 23.48938%, 0%)" offset="0.109375"/><stop stop-opacity="1" stop-color="rgb(87.992859%, 23.864746%, 0%)" offset="0.117187"/><stop stop-opacity="1" stop-color="rgb(88.082886%, 24.238586%, 0%)" offset="0.125"/><stop stop-opacity="1" stop-color="rgb(88.174438%, 24.613953%, 0%)" offset="0.132812"/><stop stop-opacity="1" stop-color="rgb(88.265991%, 24.989319%, 0%)" offset="0.140625"/><stop stop-opacity="1" stop-color="rgb(88.357544%, 25.363159%, 0%)" offset="0.148438"/><stop stop-opacity="1" stop-color="rgb(88.449097%, 25.738525%, 0%)" offset="0.15625"/><stop stop-opacity="1" stop-color="rgb(88.539124%, 26.112366%, 0%)" offset="0.164063"/><stop stop-opacity="1" stop-color="rgb(88.630676%, 26.487732%, 0%)" offset="0.171875"/><stop stop-opacity="1" stop-color="rgb(88.722229%, 26.863098%, 0%)" offset="0.179687"/><stop stop-opacity="1" stop-color="rgb(88.813782%, 27.236938%, 0%)" offset="0.1875"/><stop stop-opacity="1" stop-color="rgb(88.905334%, 27.612305%, 0%)" offset="0.195312"/><stop stop-opacity="1" stop-color="rgb(88.996887%, 27.987671%, 0%)" offset="0.203125"/><stop stop-opacity="1" stop-color="rgb(89.086914%, 28.361511%, 0%)" offset="0.210937"/><stop stop-opacity="1" stop-color="rgb(89.178467%, 28.736877%, 0%)" offset="0.21875"/><stop stop-opacity="1" stop-color="rgb(89.27002%, 29.112244%, 0%)" offset="0.226562"/><stop stop-opacity="1" stop-color="rgb(89.361572%, 29.486084%, 0%)" offset="0.234375"/><stop stop-opacity="1" stop-color="rgb(89.453125%, 29.86145%, 0%)" offset="0.242187"/><stop stop-opacity="1" stop-color="rgb(89.543152%, 30.236816%, 0%)" offset="0.25"/><stop stop-opacity="1" stop-color="rgb(89.634705%, 30.610657%, 0%)" offset="0.257812"/><stop stop-opacity="1" stop-color="rgb(89.726257%, 30.986023%, 0%)" offset="0.265625"/><stop stop-opacity="1" stop-color="rgb(89.81781%, 31.361389%, 0%)" offset="0.273438"/><stop stop-opacity="1" stop-color="rgb(89.909363%, 31.735229%, 0%)" offset="0.28125"/><stop stop-opacity="1" stop-color="rgb(89.99939%, 32.110596%, 0%)" offset="0.289062"/><stop stop-opacity="1" stop-color="rgb(90.090942%, 32.485962%, 0%)" offset="0.296875"/><stop stop-opacity="1" stop-color="rgb(90.182495%, 32.859802%, 0%)" offset="0.304687"/><stop stop-opacity="1" stop-color="rgb(90.274048%, 33.235168%, 0%)" offset="0.3125"/><stop stop-opacity="1" stop-color="rgb(90.365601%, 33.609009%, 0%)" offset="0.320312"/><stop stop-opacity="1" stop-color="rgb(90.455627%, 33.984375%, 0%)" offset="0.328125"/><stop stop-opacity="1" stop-color="rgb(90.54718%, 34.359741%, 0%)" offset="0.335938"/><stop stop-opacity="1" stop-color="rgb(90.638733%, 34.733582%, 0%)" offset="0.34375"/><stop stop-opacity="1" stop-color="rgb(90.730286%, 35.108948%, 0%)" offset="0.351562"/><stop stop-opacity="1" stop-color="rgb(90.821838%, 35.484314%, 0%)" offset="0.359375"/><stop stop-opacity="1" stop-color="rgb(90.911865%, 35.858154%, 0%)" offset="0.367188"/><stop stop-opacity="1" stop-color="rgb(91.003418%, 36.233521%, 0%)" offset="0.375"/><stop stop-opacity="1" stop-color="rgb(91.094971%, 36.608887%, 0%)" offset="0.382812"/><stop stop-opacity="1" stop-color="rgb(91.186523%, 36.982727%, 0%)" offset="0.390625"/><stop stop-opacity="1" stop-color="rgb(91.278076%, 37.358093%, 0%)" offset="0.398437"/><stop stop-opacity="1" stop-color="rgb(91.368103%, 37.733459%, 0%)" offset="0.40625"/><stop stop-opacity="1" stop-color="rgb(91.459656%, 38.1073%, 0%)" offset="0.414062"/><stop stop-opacity="1" stop-color="rgb(91.551208%, 38.482666%, 0%)" offset="0.421875"/><stop stop-opacity="1" stop-color="rgb(91.642761%, 38.858032%, 0%)" offset="0.429688"/><stop stop-opacity="1" stop-color="rgb(91.734314%, 39.231873%, 0%)" offset="0.4375"/><stop stop-opacity="1" stop-color="rgb(91.824341%, 39.607239%, 0%)" offset="0.445313"/><stop stop-opacity="1" stop-color="rgb(91.915894%, 39.982605%, 0%)" offset="0.453125"/><stop stop-opacity="1" stop-color="rgb(92.007446%, 40.356445%, 0%)" offset="0.460938"/><stop stop-opacity="1" stop-color="rgb(92.098999%, 40.731812%, 0%)" offset="0.46875"/><stop stop-opacity="1" stop-color="rgb(92.190552%, 41.105652%, 0%)" offset="0.476562"/><stop stop-opacity="1" stop-color="rgb(92.282104%, 41.481018%, 0%)" offset="0.484375"/><stop stop-opacity="1" stop-color="rgb(92.372131%, 41.856384%, 0%)" offset="0.492188"/><stop stop-opacity="1" stop-color="rgb(92.463684%, 42.230225%, 0%)" offset="0.5"/><stop stop-opacity="1" stop-color="rgb(92.555237%, 42.605591%, 0%)" offset="0.507812"/><stop stop-opacity="1" stop-color="rgb(92.64679%, 42.980957%, 0%)" offset="0.515625"/><stop stop-opacity="1" stop-color="rgb(92.738342%, 43.354797%, 0%)" offset="0.523438"/><stop stop-opacity="1" stop-color="rgb(92.828369%, 43.730164%, 0%)" offset="0.53125"/><stop stop-opacity="1" stop-color="rgb(92.919922%, 44.10553%, 0%)" offset="0.539062"/><stop stop-opacity="1" stop-color="rgb(93.011475%, 44.47937%, 0%)" offset="0.546875"/><stop stop-opacity="1" stop-color="rgb(93.103027%, 44.854736%, 0%)" offset="0.554688"/><stop stop-opacity="1" stop-color="rgb(93.19458%, 45.230103%, 0%)" offset="0.5625"/><stop stop-opacity="1" stop-color="rgb(93.284607%, 45.603943%, 0%)" offset="0.570312"/><stop stop-opacity="1" stop-color="rgb(93.37616%, 45.979309%, 0%)" offset="0.578125"/><stop stop-opacity="1" stop-color="rgb(93.467712%, 46.354675%, 0%)" offset="0.585938"/><stop stop-opacity="1" stop-color="rgb(93.559265%, 46.728516%, 0%)" offset="0.59375"/><stop stop-opacity="1" stop-color="rgb(93.650818%, 47.103882%, 0%)" offset="0.601563"/><stop stop-opacity="1" stop-color="rgb(93.740845%, 47.479248%, 0%)" offset="0.609375"/><stop stop-opacity="1" stop-color="rgb(93.832397%, 47.853088%, 0%)" offset="0.617188"/><stop stop-opacity="1" stop-color="rgb(93.92395%, 48.228455%, 0%)" offset="0.625"/><stop stop-opacity="1" stop-color="rgb(94.015503%, 48.603821%, 0%)" offset="0.632813"/><stop stop-opacity="1" stop-color="rgb(94.107056%, 48.977661%, 0%)" offset="0.640625"/><stop stop-opacity="1" stop-color="rgb(94.197083%, 49.353027%, 0%)" offset="0.648438"/><stop stop-opacity="1" stop-color="rgb(94.288635%, 49.726868%, 0%)" offset="0.65625"/><stop stop-opacity="1" stop-color="rgb(94.380188%, 50.102234%, 0%)" offset="0.664063"/><stop stop-opacity="1" stop-color="rgb(94.471741%, 50.4776%, 0%)" offset="0.671875"/><stop stop-opacity="1" stop-color="rgb(94.563293%, 50.85144%, 0%)" offset="0.679688"/><stop stop-opacity="1" stop-color="rgb(94.65332%, 51.226807%, 0%)" offset="0.6875"/><stop stop-opacity="1" stop-color="rgb(94.744873%, 51.602173%, 0%)" offset="0.695312"/><stop stop-opacity="1" stop-color="rgb(94.836426%, 51.976013%, 0%)" offset="0.703125"/><stop stop-opacity="1" stop-color="rgb(94.927979%, 52.351379%, 0%)" offset="0.710938"/><stop stop-opacity="1" stop-color="rgb(95.019531%, 52.726746%, 0%)" offset="0.71875"/><stop stop-opacity="1" stop-color="rgb(95.111084%, 53.100586%, 0%)" offset="0.726562"/><stop stop-opacity="1" stop-color="rgb(95.201111%, 53.475952%, 0%)" offset="0.734375"/><stop stop-opacity="1" stop-color="rgb(95.292664%, 53.851318%, 0%)" offset="0.742188"/><stop stop-opacity="1" stop-color="rgb(95.384216%, 54.225159%, 0%)" offset="0.75"/><stop stop-opacity="1" stop-color="rgb(95.475769%, 54.600525%, 0%)" offset="0.757813"/><stop stop-opacity="1" stop-color="rgb(95.567322%, 54.975891%, 0%)" offset="0.765625"/><stop stop-opacity="1" stop-color="rgb(95.657349%, 55.349731%, 0%)" offset="0.773438"/><stop stop-opacity="1" stop-color="rgb(95.748901%, 55.725098%, 0%)" offset="0.78125"/><stop stop-opacity="1" stop-color="rgb(95.840454%, 56.100464%, 0%)" offset="0.789063"/><stop stop-opacity="1" stop-color="rgb(95.932007%, 56.474304%, 0%)" offset="0.796875"/><stop stop-opacity="1" stop-color="rgb(96.02356%, 56.84967%, 0%)" offset="0.804688"/><stop stop-opacity="1" stop-color="rgb(96.113586%, 57.223511%, 0%)" offset="0.8125"/><stop stop-opacity="1" stop-color="rgb(96.205139%, 57.598877%, 0%)" offset="0.820312"/><stop stop-opacity="1" stop-color="rgb(96.296692%, 57.974243%, 0%)" offset="0.828125"/><stop stop-opacity="1" stop-color="rgb(96.388245%, 58.348083%, 0%)" offset="0.835938"/><stop stop-opacity="1" stop-color="rgb(96.479797%, 58.72345%, 0%)" offset="0.84375"/><stop stop-opacity="1" stop-color="rgb(96.569824%, 59.098816%, 0%)" offset="0.851562"/><stop stop-opacity="1" stop-color="rgb(96.661377%, 59.472656%, 0%)" offset="0.859375"/><stop stop-opacity="1" stop-color="rgb(96.75293%, 59.848022%, 0%)" offset="0.867188"/><stop stop-opacity="1" stop-color="rgb(96.844482%, 60.223389%, 0%)" offset="0.875"/><stop stop-opacity="1" stop-color="rgb(96.936035%, 60.597229%, 0%)" offset="0.882812"/><stop stop-opacity="1" stop-color="rgb(97.026062%, 60.972595%, 0%)" offset="0.890625"/><stop stop-opacity="1" stop-color="rgb(97.117615%, 61.347961%, 0%)" offset="0.898438"/><stop stop-opacity="1" stop-color="rgb(97.209167%, 61.721802%, 0%)" offset="0.90625"/><stop stop-opacity="1" stop-color="rgb(97.30072%, 62.097168%, 0%)" offset="0.914063"/><stop stop-opacity="1" stop-color="rgb(97.392273%, 62.472534%, 0%)" offset="0.921875"/><stop stop-opacity="1" stop-color="rgb(97.4823%, 62.846375%, 0%)" offset="0.929688"/><stop stop-opacity="1" stop-color="rgb(97.573853%, 63.221741%, 0%)" offset="0.9375"/><stop stop-opacity="1" stop-color="rgb(97.633362%, 63.468933%, 0%)" offset="1"/></linearGradient></defs><path fill="#e85c00" d="M 130.757812 17.921875 C 130.757812 19.003906 130.980469 19.828125 131.417969 20.382812 C 131.855469 20.941406 132.507812 21.222656 133.375 21.222656 C 134.242188 21.222656 134.878906 20.949219 135.316406 20.390625 C 135.753906 19.835938 135.976562 19.011719 135.976562 17.921875 C 135.976562 16.832031 135.761719 16.023438 135.324219 15.46875 C 134.894531 14.910156 134.25 14.628906 133.386719 14.628906 C 132.527344 14.628906 131.859375 14.910156 131.421875 15.46875 C 130.984375 16.023438 130.761719 16.839844 130.761719 17.921875 Z M 137.511719 17.921875 C 137.511719 19.351562 137.148438 20.464844 136.429688 21.257812 C 135.710938 22.050781 134.695312 22.453125 133.375 22.453125 C 132.054688 22.453125 131.007812 22.058594 130.289062 21.273438 C 129.578125 20.488281 129.214844 19.359375 129.214844 17.914062 C 129.214844 16.46875 129.570312 15.347656 130.289062 14.570312 C 131.007812 13.792969 132.039062 13.40625 133.382812 13.40625 C 134.722656 13.40625 135.71875 13.800781 136.4375 14.59375 C 137.15625 15.386719 137.511719 16.492188 137.511719 17.929688 Z M 137.511719 17.921875 " fill-opacity="1" fill-rule="nonzero"/><path fill="#e85c00" d="M 147.304688 22.328125 L 140.964844 22.328125 L 140.964844 21.332031 L 145.429688 14.769531 L 141.09375 14.769531 L 141.09375 13.539062 L 147.179688 13.539062 L 147.179688 14.546875 L 142.703125 21.09375 L 147.304688 21.09375 Z M 147.304688 22.328125 " fill-opacity="1" fill-rule="nonzero"/><path fill="#e85c00" d="M 152.304688 17.921875 C 152.304688 19.003906 152.527344 19.828125 152.964844 20.382812 C 153.402344 20.941406 154.054688 21.222656 154.921875 21.222656 C 155.789062 21.222656 156.425781 20.949219 156.863281 20.390625 C 157.300781 19.835938 157.523438 19.011719 157.523438 17.921875 C 157.523438 16.832031 157.308594 16.023438 156.871094 15.46875 C 156.441406 14.910156 155.796875 14.628906 154.9375 14.628906 C 154.078125 14.628906 153.410156 14.910156 152.972656 15.46875 C 152.535156 16.023438 152.3125 16.839844 152.3125 17.921875 Z M 159.058594 17.921875 C 159.058594 19.351562 158.695312 20.464844 157.976562 21.257812 C 157.257812 22.050781 156.242188 22.453125 154.921875 22.453125 C 153.601562 22.453125 152.554688 22.058594 151.835938 21.273438 C 151.125 20.488281 150.761719 19.359375 150.761719 17.914062 C 150.761719 16.46875 151.117188 15.347656 151.835938 14.570312 C 152.554688 13.792969 153.585938 13.40625 154.929688 13.40625 C 156.269531 13.40625 157.265625 13.800781 157.984375 14.59375 C 158.703125 15.386719 159.058594 16.492188 159.058594 17.929688 Z M 159.058594 17.921875 " fill-opacity="1" fill-rule="nonzero"/><path fill="#e85c00" d="M 164.730469 18.820312 L 164.730469 22.328125 L 163.285156 22.328125 L 163.285156 13.539062 L 165.785156 13.539062 C 166.925781 13.539062 167.773438 13.753906 168.320312 14.175781 C 168.871094 14.601562 169.144531 15.246094 169.144531 16.097656 C 169.144531 17.195312 168.574219 17.972656 167.421875 18.433594 L 169.921875 22.328125 L 168.277344 22.328125 L 166.15625 18.820312 L 164.722656 18.820312 Z M 164.730469 17.625 L 165.738281 17.625 C 166.414062 17.625 166.90625 17.5 167.207031 17.253906 C 167.511719 17.011719 167.660156 16.640625 167.660156 16.148438 C 167.660156 15.660156 167.496094 15.296875 167.171875 15.082031 C 166.84375 14.867188 166.347656 14.753906 165.695312 14.753906 L 164.738281 14.753906 L 164.738281 17.632812 Z M 164.730469 17.625 " fill-opacity="1" fill-rule="nonzero"/><path fill="#e85c00" d="M 177.773438 18.648438 L 176.945312 16.253906 C 176.886719 16.089844 176.796875 15.839844 176.691406 15.496094 C 176.589844 15.15625 176.515625 14.898438 176.476562 14.742188 C 176.367188 15.230469 176.210938 15.773438 175.996094 16.359375 L 175.195312 18.648438 Z M 179.042969 22.328125 L 178.160156 19.886719 L 174.773438 19.886719 L 173.902344 22.328125 L 172.375 22.328125 L 175.691406 13.503906 L 177.261719 13.503906 L 180.578125 22.328125 Z M 179.042969 22.328125 " fill-opacity="1" fill-rule="nonzero"/><path fill="#e85c00" d="M 193.242188 17.558594 L 196.496094 17.558594 L 196.496094 21.96875 C 195.964844 22.140625 195.453125 22.265625 194.960938 22.332031 C 194.472656 22.40625 193.945312 22.445312 193.375 22.445312 C 192.035156 22.445312 191.003906 22.050781 190.277344 21.265625 C 189.550781 20.480469 189.1875 19.367188 189.1875 17.929688 C 189.1875 16.492188 189.59375 15.410156 190.417969 14.613281 C 191.242188 13.8125 192.367188 13.414062 193.804688 13.414062 C 194.734375 13.414062 195.609375 13.589844 196.429688 13.941406 L 195.917969 15.132812 C 195.199219 14.808594 194.480469 14.644531 193.761719 14.644531 C 192.820312 14.644531 192.070312 14.941406 191.523438 15.527344 C 190.972656 16.113281 190.699219 16.921875 190.699219 17.945312 C 190.699219 19.019531 190.945312 19.835938 191.441406 20.398438 C 191.9375 20.953125 192.648438 21.238281 193.574219 21.238281 C 194.042969 21.238281 194.546875 21.175781 195.082031 21.058594 L 195.082031 18.789062 L 193.25 18.789062 L 193.25 17.558594 Z M 193.242188 17.558594 " fill-opacity="1" fill-rule="nonzero"/><path fill="#e85c00" d="M 200.960938 22.328125 L 200.960938 13.539062 L 202.40625 13.539062 L 202.40625 21.09375 L 206.152344 21.09375 L 206.152344 22.328125 Z M 200.960938 22.328125 " fill-opacity="1" fill-rule="nonzero"/><path fill="#e85c00" d="M 211.105469 17.921875 C 211.105469 19.003906 211.328125 19.828125 211.765625 20.382812 C 212.203125 20.941406 212.855469 21.222656 213.722656 21.222656 C 214.589844 21.222656 215.226562 20.949219 215.664062 20.390625 C 216.101562 19.835938 216.324219 19.011719 216.324219 17.921875 C 216.324219 16.832031 216.109375 16.023438 215.671875 15.46875 C 215.242188 14.910156 214.597656 14.628906 213.738281 14.628906 C 212.878906 14.628906 212.210938 14.910156 211.773438 15.46875 C 211.335938 16.023438 211.113281 16.839844 211.113281 17.921875 Z M 217.867188 17.921875 C 217.867188 19.351562 217.503906 20.464844 216.785156 21.257812 C 216.066406 22.050781 215.050781 22.453125 213.730469 22.453125 C 212.410156 22.453125 211.363281 22.058594 210.644531 21.273438 C 209.933594 20.488281 209.570312 19.359375 209.570312 17.914062 C 209.570312 16.46875 209.925781 15.347656 210.644531 14.570312 C 211.363281 13.792969 212.394531 13.40625 213.738281 13.40625 C 215.078125 13.40625 216.074219 13.800781 216.792969 14.59375 C 217.511719 15.386719 217.867188 16.492188 217.867188 17.929688 Z M 217.867188 17.921875 " fill-opacity="1" fill-rule="nonzero"/><path fill="#e85c00" d="M 223.539062 18.335938 L 223.539062 21.117188 L 225.074219 21.117188 C 225.683594 21.117188 226.136719 21.007812 226.445312 20.777344 C 226.757812 20.546875 226.914062 20.175781 226.914062 19.679688 C 226.914062 19.21875 226.757812 18.886719 226.4375 18.664062 C 226.128906 18.441406 225.644531 18.328125 225 18.328125 L 223.53125 18.328125 Z M 223.539062 17.171875 L 224.933594 17.171875 C 225.542969 17.171875 225.980469 17.078125 226.261719 16.890625 C 226.542969 16.699219 226.675781 16.371094 226.675781 15.921875 C 226.675781 15.503906 226.527344 15.207031 226.222656 15.023438 C 225.929688 14.835938 225.445312 14.75 224.792969 14.75 L 223.539062 14.75 L 223.539062 17.179688 Z M 222.09375 13.539062 L 224.71875 13.539062 C 225.933594 13.539062 226.816406 13.71875 227.359375 14.066406 C 227.90625 14.421875 228.175781 14.976562 228.175781 15.734375 C 228.175781 16.246094 228.042969 16.675781 227.773438 17.015625 C 227.507812 17.359375 227.121094 17.574219 226.625 17.664062 L 226.625 17.722656 C 227.246094 17.839844 227.699219 18.070312 227.996094 18.410156 C 228.292969 18.753906 228.441406 19.210938 228.441406 19.796875 C 228.441406 20.585938 228.160156 21.207031 227.605469 21.660156 C 227.046875 22.105469 226.277344 22.328125 225.289062 22.328125 L 222.09375 22.328125 Z M 222.09375 13.539062 " fill-opacity="1" fill-rule="nonzero"/><path fill="#e85c00" d="M 236.835938 18.648438 L 236.003906 16.253906 C 235.945312 16.089844 235.855469 15.839844 235.753906 15.496094 C 235.648438 15.15625 235.574219 14.898438 235.539062 14.742188 C 235.425781 15.230469 235.269531 15.773438 235.054688 16.359375 L 234.253906 18.648438 Z M 238.101562 22.328125 L 237.222656 19.886719 L 233.832031 19.886719 L 232.964844 22.328125 L 231.4375 22.328125 L 234.75 13.503906 L 236.324219 13.503906 L 239.636719 22.328125 Z M 238.101562 22.328125 " fill-opacity="1" fill-rule="nonzero"/><g clip-path="url(#f27dbafd13)"><path fill="#e85c00" d="M 243.136719 22.328125 L 243.136719 13.539062 L 244.582031 13.539062 L 244.582031 21.09375 L 248.328125 21.09375 L 248.328125 22.328125 Z M 243.136719 22.328125 " fill-opacity="1" fill-rule="nonzero"/></g><path fill="#e85c00" d="M 129.636719 31.632812 L 131.097656 31.632812 L 131.097656 40.417969 L 129.636719 40.417969 Z M 129.636719 31.632812 " fill-opacity="1" fill-rule="nonzero"/><path fill="#e85c00" d="M 143.234375 40.417969 L 141.449219 40.417969 L 137.058594 33.417969 L 137.007812 33.417969 L 137.035156 33.8125 C 137.097656 34.5625 137.125 35.234375 137.125 35.859375 L 137.125 40.425781 L 135.796875 40.425781 L 135.796875 31.640625 L 137.570312 31.640625 L 141.945312 38.609375 L 141.984375 38.609375 C 141.976562 38.519531 141.960938 38.179688 141.929688 37.609375 C 141.910156 37.03125 141.894531 36.578125 141.894531 36.25 L 141.894531 31.648438 L 143.226562 31.648438 L 143.226562 40.433594 Z M 143.234375 40.417969 " fill-opacity="1" fill-rule="nonzero"/><path fill="#e85c00" d="M 153.660156 35.992188 C 153.660156 33.886719 152.660156 32.832031 150.664062 32.832031 L 149.40625 32.832031 L 149.40625 39.210938 L 150.441406 39.210938 C 152.59375 39.210938 153.667969 38.136719 153.667969 35.984375 Z M 155.195312 35.941406 C 155.195312 37.394531 154.789062 38.5 153.972656 39.269531 C 153.15625 40.035156 151.976562 40.417969 150.4375 40.417969 L 147.9375 40.417969 L 147.9375 31.632812 L 150.695312 31.632812 C 152.117188 31.632812 153.222656 32.011719 154.007812 32.757812 C 154.796875 33.507812 155.195312 34.574219 155.195312 35.941406 Z M 155.195312 35.941406 " fill-opacity="1" fill-rule="nonzero"/><path fill="#e85c00" d="M 160.578125 36.015625 C 160.578125 37.097656 160.800781 37.921875 161.246094 38.476562 C 161.691406 39.03125 162.34375 39.3125 163.21875 39.3125 C 164.09375 39.3125 164.738281 39.039062 165.175781 38.484375 C 165.621094 37.925781 165.84375 37.105469 165.84375 36.015625 C 165.84375 34.925781 165.621094 34.117188 165.183594 33.558594 C 164.746094 33.003906 164.09375 32.722656 163.234375 32.722656 C 162.375 32.722656 161.699219 33.003906 161.246094 33.558594 C 160.800781 34.117188 160.578125 34.933594 160.578125 36.015625 Z M 167.386719 36.015625 C 167.386719 37.445312 167.023438 38.558594 166.296875 39.351562 C 165.570312 40.144531 164.546875 40.546875 163.210938 40.546875 C 161.878906 40.546875 160.832031 40.152344 160.105469 39.367188 C 159.386719 38.582031 159.023438 37.453125 159.023438 36.007812 C 159.023438 34.5625 159.386719 33.441406 160.113281 32.664062 C 160.839844 31.882812 161.878906 31.5 163.226562 31.5 C 164.574219 31.5 165.578125 31.890625 166.304688 32.683594 C 167.03125 33.480469 167.394531 34.582031 167.394531 36.023438 Z M 167.386719 36.015625 " fill-opacity="1" fill-rule="nonzero"/><path fill="#e85c00" d="M 179.085938 40.417969 L 177.300781 40.417969 L 172.910156 33.417969 L 172.859375 33.417969 L 172.886719 33.8125 C 172.949219 34.5625 172.976562 35.234375 172.976562 35.859375 L 172.976562 40.425781 L 171.648438 40.425781 L 171.648438 31.640625 L 173.421875 31.640625 L 177.796875 38.609375 L 177.835938 38.609375 C 177.828125 38.519531 177.8125 38.179688 177.78125 37.609375 C 177.761719 37.03125 177.746094 36.578125 177.746094 36.25 L 177.746094 31.648438 L 179.078125 31.648438 L 179.078125 40.433594 Z M 179.085938 40.417969 " fill-opacity="1" fill-rule="nonzero"/><path fill="#e85c00" d="M 188.832031 40.417969 L 183.789062 40.417969 L 183.789062 31.632812 L 188.832031 31.632812 L 188.832031 32.847656 L 185.242188 32.847656 L 185.242188 35.234375 L 188.609375 35.234375 L 188.609375 36.445312 L 185.242188 36.445312 L 185.242188 39.203125 L 188.832031 39.203125 Z M 188.832031 40.417969 " fill-opacity="1" fill-rule="nonzero"/><path fill="#e85c00" d="M 198.261719 38.03125 C 198.261719 38.808594 197.972656 39.425781 197.402344 39.871094 C 196.832031 40.316406 196.039062 40.539062 195.03125 40.539062 C 194.019531 40.539062 193.191406 40.382812 192.554688 40.078125 L 192.554688 38.722656 C 192.960938 38.90625 193.390625 39.054688 193.851562 39.167969 C 194.308594 39.277344 194.742188 39.328125 195.132812 39.328125 C 195.710938 39.328125 196.132812 39.21875 196.410156 39.003906 C 196.683594 38.789062 196.824219 38.5 196.824219 38.128906 C 196.824219 37.800781 196.699219 37.519531 196.445312 37.289062 C 196.195312 37.058594 195.675781 36.792969 194.882812 36.480469 C 194.066406 36.15625 193.496094 35.785156 193.160156 35.371094 C 192.828125 34.953125 192.65625 34.449219 192.65625 33.863281 C 192.65625 33.128906 192.921875 32.550781 193.449219 32.136719 C 193.976562 31.714844 194.6875 31.507812 195.578125 31.507812 C 196.46875 31.507812 197.285156 31.691406 198.128906 32.0625 L 197.660156 33.234375 C 196.867188 32.90625 196.15625 32.746094 195.542969 32.746094 C 195.066406 32.746094 194.710938 32.847656 194.464844 33.046875 C 194.222656 33.25 194.101562 33.515625 194.101562 33.847656 C 194.101562 34.078125 194.15625 34.273438 194.25 34.433594 C 194.347656 34.597656 194.511719 34.746094 194.734375 34.894531 C 194.957031 35.035156 195.363281 35.230469 195.941406 35.464844 C 196.59375 35.734375 197.074219 35.984375 197.378906 36.214844 C 197.683594 36.445312 197.90625 36.710938 198.054688 37 C 198.195312 37.289062 198.269531 37.636719 198.269531 38.03125 Z M 198.261719 38.03125 " fill-opacity="1" fill-rule="nonzero"/><path fill="#e85c00" d="M 202.332031 31.632812 L 203.792969 31.632812 L 203.792969 40.417969 L 202.332031 40.417969 Z M 202.332031 31.632812 " fill-opacity="1" fill-rule="nonzero"/><path fill="#e85c00" d="M 212.757812 36.742188 L 211.921875 34.347656 C 211.863281 34.183594 211.773438 33.929688 211.660156 33.589844 C 211.558594 33.25 211.484375 32.988281 211.4375 32.832031 C 211.328125 33.324219 211.171875 33.863281 210.957031 34.449219 L 210.148438 36.742188 Z M 214.035156 40.417969 L 213.144531 37.980469 L 209.734375 37.980469 L 208.859375 40.417969 L 207.324219 40.417969 L 210.660156 31.59375 L 212.246094 31.59375 L 215.582031 40.417969 Z M 214.035156 40.417969 " fill-opacity="1" fill-rule="nonzero"/><g clip-path="url(#46e874f90c)"><g clip-path="url(#717671f20a)"><path fill="url(#74c107bbe2)" d="M 1.148438 0 L 1.148438 55.003906 L 117.3125 55.003906 L 117.3125 0 Z M 1.148438 0 " fill-rule="nonzero"/></g></g></svg>